<svg width="353" height="142" viewBox="0 0 353 142" fill="none" xmlns="http://www.w3.org/2000/svg">
<path d="M99.3083 60C101.898 60 103.126 60.2372 104.402 60.9196C105.554 61.5357 106.464 62.4458 107.08 63.5979C107.763 64.8738 108 66.1022 108 68.6917V73.3083C108 75.8978 107.763 77.1262 107.08 78.4021C106.464 79.5542 105.554 80.4643 104.402 81.0804C103.126 81.7628 101.898 82 99.3083 82H94.6917C92.1022 82 90.8738 81.7628 89.5979 81.0804C88.4458 80.4643 87.5357 79.5542 86.9196 78.4021C86.2372 77.1262 86 75.8978 86 73.3083V68.6917C86 66.1022 86.2372 64.8738 86.9196 63.5979C87.5357 62.4458 88.4458 61.5357 89.5979 60.9196C90.8738 60.2372 92.1022 60 94.6917 60H99.3083ZM100.979 72.4419L96.7771 77.6294C96.426 78.0628 95.7883 78.1253 95.3598 77.7682L93.0614 75.8528L89.9632 78.9516C90.1441 79.0857 90.3368 79.2076 90.5411 79.3168C91.4876 79.823 92.4042 80 94.6917 80H99.3083C101.596 80 102.512 79.823 103.459 79.3168C104.262 78.8871 104.887 78.2624 105.317 77.4589C105.464 77.1842 105.583 76.9121 105.678 76.6082L100.979 72.4419ZM99.3083 62H94.6917C92.4042 62 91.4876 62.177 90.5411 62.6832C89.7376 63.1129 89.1129 63.7376 88.6832 64.5411C88.177 65.4876 88 66.4042 88 68.6917V73.3083C88 75.5652 88.1723 76.4876 88.6631 77.4209L92.2929 73.7929C92.6586 73.4272 93.2429 73.4007 93.6402 73.7318L95.8612 75.5826L100.083 70.3706C100.442 69.9278 101.097 69.8738 101.524 70.2517L105.989 74.2102C105.996 73.9349 106 73.6356 106 73.3083V68.6917C106 66.4042 105.823 65.4876 105.317 64.5411C104.887 63.7376 104.262 63.1129 103.459 62.6832C102.512 62.177 101.596 62 99.3083 62ZM93.5 66C94.3284 66 95 66.6716 95 67.5C95 68.3284 94.3284 69 93.5 69C92.6716 69 92 68.3284 92 67.5C92 66.6716 92.6716 66 93.5 66Z" fill="#3F8AE0"/>
<path d="M122.43 71.9922H123.984C125.562 71.9922 126.469 72.7031 126.469 73.8438V73.8594C126.469 74.9844 125.5 75.7344 124.039 75.7344C122.609 75.7344 121.633 75.0938 121.516 74.0234L121.508 73.9688H119.805V74.0469C119.938 75.9922 121.617 77.2734 124.039 77.2734C126.414 77.2734 128.25 75.8516 128.25 73.9453V73.9297C128.25 72.3516 127.203 71.3438 125.742 71.1953V71.0625C126.992 70.7734 127.859 69.7344 127.859 68.5V68.4844C127.859 66.7031 126.297 65.4531 124.078 65.4531C121.781 65.4531 120.266 66.6562 120.109 68.5938L120.094 68.7188H121.773L121.781 68.6641C121.891 67.6094 122.734 66.9922 124.023 66.9922C125.344 66.9922 126.125 67.6406 126.125 68.6641V68.6797C126.125 69.7656 125.273 70.5156 123.938 70.5156H122.43V71.9922ZM132.414 77.1406C133.539 77.1406 134.43 76.6562 134.93 75.7969H135.063V77H136.743V71.1953C136.743 69.4141 135.539 68.3516 133.407 68.3516C131.477 68.3516 130.141 69.2812 129.938 70.6719L129.93 70.7266H131.563L131.571 70.6953C131.774 70.0938 132.391 69.75 133.328 69.75C134.477 69.75 135.063 70.2656 135.063 71.1953V71.9453L132.766 72.0781C130.743 72.2031 129.602 73.0859 129.602 74.6016V74.6172C129.602 76.1562 130.797 77.1406 132.414 77.1406ZM131.289 74.5469V74.5312C131.289 73.7656 131.821 73.3438 132.993 73.2734L135.063 73.1406V73.8672C135.063 74.9609 134.133 75.7891 132.868 75.7891C131.953 75.7891 131.289 75.3281 131.289 74.5469ZM144.563 69.8516V68.5156H138.962V77H140.657V69.8516H144.563ZM146.243 79.8281H147.938V75.6562H148.063C148.517 76.5703 149.509 77.1406 150.673 77.1406C152.829 77.1406 154.188 75.4531 154.188 72.7656V72.75C154.188 70.0781 152.813 68.3672 150.673 68.3672C149.485 68.3672 148.556 68.9219 148.063 69.8516H147.938V68.5156H146.243V79.8281ZM150.196 75.6953C148.782 75.6953 147.907 74.5781 147.907 72.7656V72.75C147.907 70.9375 148.782 69.8203 150.196 69.8203C151.61 69.8203 152.462 70.9219 152.462 72.75V72.7656C152.462 74.5859 151.61 75.6953 150.196 75.6953ZM156.564 79.9844C158.283 79.9844 159.142 79.3516 159.861 77.3281L163.017 68.5156H161.236L159.118 75.2969H158.97L156.845 68.5156H155.017L158.095 77.0078L157.97 77.4453C157.72 78.3047 157.243 78.6406 156.454 78.6406C156.259 78.6406 156.048 78.6328 155.884 78.6094V79.9453C156.103 79.9688 156.353 79.9844 156.564 79.9844ZM167.298 77.1641C169.392 77.1641 170.767 76.0781 170.767 74.5078V74.4922C170.767 73.5391 170.189 72.8672 169.033 72.625V72.4922C169.916 72.2891 170.478 71.5625 170.478 70.6875V70.6719C170.478 69.2656 169.306 68.3438 167.345 68.3438C165.416 68.3438 164.197 69.2891 164.002 70.7266L163.994 70.7812H165.619L165.627 70.7422C165.752 70.1016 166.4 69.6875 167.306 69.6875C168.322 69.6875 168.83 70.1797 168.83 70.8438V70.8594C168.83 71.6406 168.298 72.0547 167.275 72.0547H166.017V73.2891H167.283C168.463 73.2891 169.095 73.6875 169.095 74.5078V74.5234C169.095 75.2891 168.423 75.8281 167.283 75.8281C166.322 75.8281 165.627 75.4219 165.455 74.75L165.439 74.6953H163.767L163.775 74.7578C163.955 76.2891 165.416 77.1641 167.298 77.1641ZM172.635 77H174.314L178.15 71.0234H178.299V77H179.978V68.5156H178.299L174.463 74.4688H174.314V68.5156H172.635V77ZM188.596 68.5156H181.557V69.8516H184.229V77H185.924V69.8516H188.596V68.5156ZM190.167 77H193.526C195.495 77 196.753 75.8672 196.753 74.0781V74.0625C196.753 72.2812 195.495 71.1484 193.526 71.1484H191.862V68.5156H190.167V77ZM193.385 72.4844C194.401 72.4844 195.049 73.1094 195.049 74.0625V74.0781C195.049 75.0234 194.409 75.6641 193.385 75.6641H191.862V72.4844H193.385ZM206.128 77.1641C208.613 77.1641 210.136 75.5 210.136 72.7656V72.75C210.136 70.0156 208.605 68.3516 206.128 68.3516C203.644 68.3516 202.113 70.0234 202.113 72.75V72.7656C202.113 75.5 203.636 77.1641 206.128 77.1641ZM206.128 75.75C204.667 75.75 203.847 74.6484 203.847 72.7656V72.75C203.847 70.8672 204.667 69.7656 206.128 69.7656C207.581 69.7656 208.409 70.8672 208.409 72.75V72.7656C208.409 74.6406 207.581 75.75 206.128 75.75ZM215.652 77.1641C218.144 77.1641 219.683 75.4766 219.683 72.7812V72.7656C219.683 70.25 218.214 68.6406 215.949 68.6406C214.644 68.6406 213.644 69.1953 213.082 70.2109H212.949L212.972 70.0469C213.269 67.8438 214.128 66.9531 216.074 66.875L216.996 66.8359C217.941 66.7969 218.832 66.6094 219.128 66.3828V64.9688C218.425 65.2344 217.597 65.3594 216.91 65.3906L215.972 65.4297C212.902 65.5625 211.589 67.5312 211.589 71.9844V72C211.589 75.3672 212.988 77.1641 215.652 77.1641ZM215.636 75.75C214.16 75.75 213.316 74.6562 213.316 72.8047V72.7891C213.316 71.0312 214.16 70.0234 215.636 70.0234C217.105 70.0234 217.957 71.0312 217.957 72.7891V72.8047C217.957 74.6562 217.105 75.75 215.636 75.75ZM223.746 73.4766L224.019 69.8516H226.699V77H228.394V68.5156H222.535L222.207 73.3438C222.129 74.5781 221.84 75.5625 221.058 75.5625C220.848 75.5625 220.637 75.5312 220.558 75.5078V76.9844C220.676 77.0234 220.918 77.0781 221.238 77.0781C222.84 77.0781 223.574 75.875 223.746 73.4766ZM234.262 77.1641C236.746 77.1641 238.27 75.5 238.27 72.7656V72.75C238.27 70.0156 236.738 68.3516 234.262 68.3516C231.777 68.3516 230.246 70.0234 230.246 72.75V72.7656C230.246 75.5 231.77 77.1641 234.262 77.1641ZM234.262 75.75C232.801 75.75 231.981 74.6484 231.981 72.7656V72.75C231.981 70.8672 232.801 69.7656 234.262 69.7656C235.715 69.7656 236.543 70.8672 236.543 72.75V72.7656C236.543 74.6406 235.715 75.75 234.262 75.75ZM240.84 77L243.622 73.2188H244.114V77H245.754V73.2188H246.254L249.028 77H251.075L247.598 72.4609L250.895 68.5156H248.957L246.247 72.0078H245.754V68.5156H244.114V72.0078H243.629L240.918 68.5156H238.957L242.278 72.4844L238.825 77H240.84ZM254.567 73.25L257.606 77H259.7L255.942 72.4688L259.544 68.5156H257.567L254.559 71.9844H254.137V68.5156H252.442V77H254.137V73.25H254.567ZM261.693 79.9844C263.411 79.9844 264.271 79.3516 264.989 77.3281L268.146 68.5156H266.364L264.247 75.2969H264.099L261.974 68.5156H260.146L263.224 77.0078L263.099 77.4453C262.849 78.3047 262.372 78.6406 261.583 78.6406C261.388 78.6406 261.177 78.6328 261.013 78.6094V79.9453C261.232 79.9688 261.482 79.9844 261.693 79.9844Z" fill="#3F8AE0"/>
<rect x="1" y="1" width="351" height="140" rx="10" stroke="#3F8AE0" stroke-linecap="round" stroke-linejoin="round" stroke-dasharray="4 4"/>
</svg>
